<?xml version="1.0" standalone="no"?>
<!DOCTYPE svg PUBLIC "-//W3C//DTD SVG 20010904//EN"
 "http://www.w3.org/TR/2001/REC-SVG-20010904/DTD/svg10.dtd">
<svg version="1.0" xmlns="http://www.w3.org/2000/svg"
 width="1300.000000pt" height="1300.000000pt" viewBox="0 0 1300.000000 1300.000000"
 preserveAspectRatio="xMidYMid meet">

<g transform="translate(0.000000,1300.000000) scale(0.100000,-0.100000)"
fill="#000000" stroke="none">
<path d="M3265 11221 c-22 -10 -55 -34 -74 -52 -64 -64 -66 -72 -69 -404 l-3
-300 28 25 28 25 -27 -31 -28 -30 0 -285 0 -284 125 -125 125 -125 0 682 0
682 2328 -2 2327 -2 3 -288 2 -287 -897 0 c-494 0 -911 0 -927 0 l-30 0 30
-32 29 -33 -35 32 -36 33 -1014 0 c-633 0 -1028 -4 -1050 -10 -52 -14 -109
-67 -136 -124 l-24 -51 0 -2612 0 -2613 -285 0 -285 0 0 957 0 958 -125 -125
-125 -125 0 -255 0 -255 123 -125 122 -125 -122 120 -123 120 0 -586 c0 -647
1 -655 63 -725 17 -20 52 -46 77 -58 42 -19 65 -21 362 -24 l317 -3 3 -322 3
-322 28 -47 c42 -73 103 -109 196 -118 42 -4 734 -6 1539 -6 1458 1 1463 1
1459 -19 -4 -19 -353 -978 -438 -1204 -29 -80 -36 -108 -27 -118 8 -10 8 -12
-4 -8 -10 4 -31 -43 -86 -196 -40 -111 -71 -203 -69 -205 3 -4 133 49 322 130
55 24 145 62 200 85 55 24 125 53 155 66 112 48 81 83 291 -331 102 -201 190
-366 194 -367 9 -2 37 69 130 328 26 72 65 180 87 240 22 61 60 164 83 230 24
66 110 300 190 520 152 415 205 563 205 577 0 4 -15 15 -32 24 -18 9 -52 32
-75 51 l-42 34 -53 -39 c-68 -50 -94 -64 -143 -73 -80 -15 -160 30 -231 132
-31 45 -30 45 -124 10 -159 -59 -258 6 -322 209 -3 11 -26 14 -109 15 -99 0
-108 2 -148 28 -30 20 -49 43 -65 78 l-21 49 -1422 0 -1423 0 0 1808 c-1 2609
0 4176 4 4179 2 2 2295 5 2421 3 6 0 510 -1 1120 -3 l1110 -2 2 -1515 c2 -833
3 -1542 3 -1576 l0 -61 51 -1 c66 -1 116 -27 156 -80 l33 -44 0 1669 0 1668
-24 50 c-26 56 -53 83 -111 114 -38 20 -54 21 -356 21 -268 0 -318 2 -322 15
-4 8 -6 152 -6 320 -1 234 -4 313 -14 338 -22 52 -68 98 -122 123 l-50 24
-2390 0 c-2307 0 -2391 -1 -2430 -19z m2135 -26 c13 -14 21 -25 18 -25 -2 0
-15 11 -28 25 -13 14 -21 25 -18 25 2 0 15 -11 28 -25z m-1590 -48 c0 -2 -10
-12 -22 -23 l-23 -19 19 23 c18 21 26 27 26 19z m3760 0 c0 -2 -10 -12 -22
-23 l-23 -19 19 23 c18 21 26 27 26 19z m-2090 -32 c13 -14 21 -25 18 -25 -2
0 -15 11 -28 25 -13 14 -21 25 -18 25 2 0 15 -11 28 -25z m-1750 -48 c0 -2
-10 -12 -22 -23 l-23 -19 19 23 c18 21 26 27 26 19z m3760 0 c0 -2 -10 -12
-22 -23 l-23 -19 19 23 c18 21 26 27 26 19z m-1930 -32 c13 -14 21 -25 18 -25
-2 0 -15 11 -28 25 -13 14 -21 25 -18 25 2 0 15 -11 28 -25z m-2230 -368 c0
-2 -10 -12 -22 -23 l-23 -19 19 23 c18 21 26 27 26 19z m-80 -80 c0 -2 -10
-12 -22 -23 l-23 -19 19 23 c18 21 26 27 26 19z m3590 -171 c0 -2 -8 -10 -17
-17 -16 -13 -17 -12 -4 4 13 16 21 21 21 13z m-70 -69 c0 -2 -10 -12 -22 -23
l-23 -19 19 23 c18 21 26 27 26 19z m-490 -32 c13 -14 21 -25 18 -25 -2 0 -15
11 -28 25 -13 14 -21 25 -18 25 2 0 15 -11 28 -25z m410 -48 c0 -2 -10 -12
-22 -23 l-23 -19 19 23 c18 21 26 27 26 19z m-330 -32 c13 -14 21 -25 18 -25
-2 0 -15 11 -28 25 -13 14 -21 25 -18 25 2 0 15 -11 28 -25z m1150 -6479 c0
-2 -8 -10 -17 -17 -16 -13 -17 -12 -4 4 13 16 21 21 21 13z m-80 -80 c0 -2 -8
-10 -17 -17 -16 -13 -17 -12 -4 4 13 16 21 21 21 13z m-80 -80 c0 -2 -8 -10
-17 -17 -16 -13 -17 -12 -4 4 13 16 21 21 21 13z m-80 -80 c0 -2 -8 -10 -17
-17 -16 -13 -17 -12 -4 4 13 16 21 21 21 13z m-80 -80 c0 -2 -8 -10 -17 -17
-16 -13 -17 -12 -4 4 13 16 21 21 21 13z m-80 -80 c0 -2 -8 -10 -17 -17 -16
-13 -17 -12 -4 4 13 16 21 21 21 13z m-80 -80 c0 -2 -8 -10 -17 -17 -16 -13
-17 -12 -4 4 13 16 21 21 21 13z m-100 -99 c0 -2 -10 -12 -22 -23 l-23 -19 19
23 c18 21 26 27 26 19z m-175 -627 c10 -11 16 -20 13 -20 -3 0 -13 9 -23 20
-10 11 -16 20 -13 20 3 0 13 -9 23 -20z m80 -80 c10 -11 16 -20 13 -20 -3 0
-13 9 -23 20 -10 11 -16 20 -13 20 3 0 13 -9 23 -20z m80 -80 c10 -11 16 -20
13 -20 -3 0 -13 9 -23 20 -10 11 -16 20 -13 20 3 0 13 -9 23 -20z"/>
<path d="M3120 8280 l0 -1595 125 125 125 125 0 1345 0 1345 -125 125 -125
125 0 -1595z"/>
<path d="M4570 8972 c-84 -37 -115 -132 -67 -203 12 -18 34 -39 47 -46 20 -10
432 -13 1958 -13 1737 0 1937 2 1967 16 49 23 67 49 73 102 5 59 -15 105 -61
132 -31 20 -65 20 -1967 19 -1064 0 -1942 -3 -1950 -7z"/>
<path d="M4537 8229 c-80 -61 -73 -175 15 -229 32 -19 52 -20 566 -20 579 0
566 -1 611 56 43 54 21 156 -42 194 -31 19 -54 20 -577 20 -535 -1 -545 -1
-573 -21z"/>
<path d="M6263 8230 c-45 -27 -65 -62 -65 -114 -1 -52 19 -88 65 -117 31 -19
55 -19 1119 -17 l1087 3 35 34 c65 63 62 152 -6 201 l-41 30 -1081 0 c-1054 0
-1082 -1 -1113 -20z"/>
<path d="M4585 7522 c-11 -2 -32 -13 -48 -24 -91 -65 -66 -208 42 -238 49 -13
2133 -13 2182 0 113 31 133 181 32 247 -25 17 -67 18 -659 18 -374 0 -630 -4
-626 -9 3 -5 -1 -5 -9 0 -14 9 -873 14 -914 6z m990 -72 c10 -11 16 -20 13
-20 -3 0 -13 9 -23 20 -10 11 -16 20 -13 20 3 0 13 -9 23 -20z m80 -80 c10
-11 16 -20 13 -20 -3 0 -13 9 -23 20 -10 11 -16 20 -13 20 3 0 13 -9 23 -20z
m80 -80 c10 -11 16 -20 13 -20 -3 0 -13 9 -23 20 -10 11 -16 20 -13 20 3 0 13
-9 23 -20z"/>
<path d="M7317 7513 c-40 -16 -77 -75 -77 -123 0 -37 27 -100 43 -100 6 0 20
8 31 18 21 17 21 17 4 -4 -10 -11 -18 -23 -18 -27 0 -22 113 -27 603 -27 578
0 569 -1 620 59 51 61 26 172 -45 202 -43 18 -1116 20 -1161 2z m163 -47 c0
-2 -8 -10 -17 -17 -16 -13 -17 -12 -4 4 13 16 21 21 21 13z m-80 -80 c0 -2 -8
-10 -17 -17 -16 -13 -17 -12 -4 4 13 16 21 21 21 13z"/>
<path d="M7992 7005 c-12 -9 -42 -44 -66 -78 -81 -114 -95 -118 -226 -68 -44
17 -89 31 -100 31 -31 0 -64 -41 -84 -107 -26 -83 -52 -131 -76 -138 -11 -4
-65 -3 -119 0 -54 4 -107 4 -119 1 -27 -9 -39 -50 -45 -152 -7 -124 -18 -136
-143 -159 -91 -18 -130 -37 -137 -67 -10 -39 18 -137 49 -171 23 -25 24 -27 4
-10 l-25 22 3 -43 c5 -53 -7 -65 -110 -120 -130 -69 -131 -73 -57 -216 49 -93
51 -101 39 -130 -7 -17 -39 -55 -71 -84 -71 -63 -92 -101 -77 -130 6 -12 44
-56 86 -99 88 -91 88 -96 17 -216 -70 -117 -63 -137 67 -205 82 -42 108 -67
108 -101 0 -13 -9 -62 -21 -110 -29 -123 -18 -145 81 -165 106 -22 159 -40
170 -60 6 -11 14 -67 19 -125 11 -143 8 -141 162 -137 146 4 147 4 186 -116
15 -46 38 -96 51 -109 27 -30 49 -28 152 13 35 15 81 29 101 31 40 6 38 8 134
-124 60 -84 86 -85 177 -12 79 64 114 82 143 75 13 -3 59 -33 103 -66 117 -89
129 -86 225 51 64 92 80 96 192 49 136 -58 160 -50 200 67 48 144 63 155 189
141 90 -10 132 -3 151 26 10 14 18 60 22 121 8 129 17 139 140 165 51 10 102
24 113 30 32 17 34 54 10 155 -31 128 -27 136 85 197 48 26 94 53 101 59 25
21 15 68 -37 167 -50 97 -51 99 -36 129 9 17 38 50 65 74 26 24 59 58 71 76
21 29 23 35 11 62 -7 17 -41 58 -76 91 -98 91 -99 104 -20 234 50 82 49 117
-5 156 -64 46 -76 47 -118 8 l-36 -33 33 36 33 36 -35 21 c-58 34 -63 57 -38
166 12 52 22 103 22 114 0 38 -41 57 -172 82 -91 18 -98 28 -113 156 -7 60
-15 117 -19 126 -12 26 -40 31 -150 23 -129 -9 -143 0 -181 115 -31 93 -57
130 -91 130 -14 0 -62 -14 -107 -32 -129 -49 -145 -44 -225 72 -20 29 -49 62
-64 73 -34 26 -61 16 -154 -59 -37 -29 -77 -55 -88 -57 -26 -4 -70 17 -121 58
-47 39 -106 75 -120 75 -6 0 -20 -7 -33 -15z m428 -429 c384 -55 717 -296 890
-645 34 -68 85 -212 95 -266 45 -241 29 -463 -46 -667 -210 -569 -811 -883
-1404 -734 -55 14 -109 30 -120 35 -11 5 -51 23 -88 40 -176 79 -370 246 -478
411 -65 99 -129 239 -157 342 -62 229 -52 510 26 716 l19 50 -21 23 -21 23 22
-18 c21 -17 21 -17 64 65 74 143 193 285 324 388 251 198 572 283 895 237z
m-1405 -566 c10 -11 16 -20 13 -20 -3 0 -13 9 -23 20 -10 11 -16 20 -13 20 3
0 13 -9 23 -20z m80 -80 c10 -11 16 -20 13 -20 -3 0 -13 9 -23 20 -10 11 -16
20 -13 20 3 0 13 -9 23 -20z m2495 -73 c0 -2 -12 -14 -27 -28 l-28 -24 24 28
c23 25 31 32 31 24z m-80 -80 c0 -2 -12 -14 -27 -28 l-28 -24 24 28 c23 25 31
32 31 24z"/>
<path d="M8119 6400 c-211 -26 -465 -158 -603 -311 -211 -235 -301 -537 -251
-846 33 -201 118 -371 262 -524 121 -128 277 -224 449 -274 128 -38 349 -46
480 -17 306 68 554 259 689 530 73 145 105 285 105 455 0 93 -1 99 -17 86 -17
-13 -17 -13 -1 6 16 19 16 26 2 95 -32 152 -96 294 -190 419 -130 173 -365
322 -577 365 -95 20 -260 28 -348 16z m-788 -707 c13 -16 12 -17 -3 -4 -10 7
-18 15 -18 17 0 8 8 3 21 -13z m84 -83 c10 -11 16 -20 13 -20 -3 0 -13 9 -23
20 -10 11 -16 20 -13 20 3 0 13 -9 23 -20z m80 -80 c10 -11 16 -20 13 -20 -3
0 -13 9 -23 20 -10 11 -16 20 -13 20 3 0 13 -9 23 -20z m1695 -73 c0 -2 -12
-14 -27 -28 l-28 -24 24 28 c23 25 31 32 31 24z"/>
<path d="M4554 6781 c-69 -31 -95 -121 -54 -188 41 -67 -32 -63 1016 -63 522
0 960 2 973 5 49 9 91 69 91 130 0 52 -24 92 -70 115 -38 20 -57 20 -977 20
-891 0 -940 -1 -979 -19z m1741 -51 c10 -11 16 -20 13 -20 -3 0 -13 9 -23 20
-10 11 -16 20 -13 20 3 0 13 -9 23 -20z m80 -80 c10 -11 16 -20 13 -20 -3 0
-13 9 -23 20 -10 11 -16 20 -13 20 3 0 13 -9 23 -20z m80 -80 c10 -11 16 -20
13 -20 -3 0 -13 9 -23 20 -10 11 -16 20 -13 20 3 0 13 -9 23 -20z"/>
<path d="M4543 6050 c-88 -53 -82 -190 10 -233 32 -16 113 -17 912 -17 957 0
911 -3 953 57 41 60 34 128 -19 179 l-30 29 -897 3 c-876 2 -898 2 -929 -18z
m1497 -24 c0 -2 -8 -10 -17 -17 -16 -13 -17 -12 -4 4 13 16 21 21 21 13z m-80
-80 c0 -2 -8 -10 -17 -17 -16 -13 -17 -12 -4 4 13 16 21 21 21 13z m-80 -80
c0 -2 -8 -10 -17 -17 -16 -13 -17 -12 -4 4 13 16 21 21 21 13z"/>
<path d="M9119 4001 c-27 -83 -69 -151 -111 -178 -69 -46 -186 -37 -289 23 -3
2 -30 -28 -60 -66 -52 -67 -97 -101 -149 -113 -22 -5 -31 -24 -77 -151 l-52
-144 39 -103 c21 -57 64 -173 94 -256 31 -84 80 -219 110 -300 29 -82 89 -246
132 -365 44 -120 81 -218 84 -218 3 0 79 147 170 326 91 179 168 327 172 330
6 4 288 -112 583 -240 55 -24 101 -40 103 -35 2 4 -21 75 -51 156 -49 132
-150 410 -254 698 l-36 100 -166 170 -166 170 162 -159 161 -159 -54 149
c-118 326 -138 379 -143 385 -3 4 -47 9 -98 12 l-92 4 -12 -36z"/>
</g>
</svg>
